<?xml version="1.0" encoding="utf-8"?>
<!-- Generator: Adobe Illustrator 18.1.1, SVG Export Plug-In . SVG Version: 6.00 Build 0)  -->
<!DOCTYPE svg PUBLIC "-//W3C//DTD SVG 1.1//EN" "http://www.w3.org/Graphics/SVG/1.1/DTD/svg11.dtd">
<svg version="1.1" id="ARM_Silver_Padlock_heighlight_shape"
	 xmlns="http://www.w3.org/2000/svg" xmlns:xlink="http://www.w3.org/1999/xlink" x="0px" y="0px" viewBox="0 0 227.7 227.3"
	 enable-background="new 0 0 227.7 227.3" xml:space="preserve">
<path fill="#38A2DE" d="M113.3,70.6l1.5,3.7c-5.3,2.3-5.9,7-4.6,10.1c3.1,7.5,12.7,7.2,15.8,7.9c3.7,0.8,4,3.3,1.6,4.3
	c-2.8,1.2-7.7,0.5-10.7-0.1l0.7,6.4c3,0.9,6.8,1.3,9.4,1l1.4,3.3l5.3-0.9l-1.5-3.7c4.5-1.5,7.3-5.1,5.2-10.3
	c-2.7-6.6-10.7-7.3-16.6-8.7c-2.9-0.8-3.7-3.4-0.4-4.2c0,0,0.1,0,0.1,0c2.8-0.7,6.3-0.1,8.4,0.2c0,0-0.9-5.2-1.1-6.5
	c-3-0.4-5.5-0.4-7.9-0.1l-1.4-3.4L113.3,70.6z M137.3,116.6c-16.3,4.2-36.1-6.5-43-23.2c-6.5-15.9,1.1-31,17.1-33.8
	c16-2.8,34.3,7.8,40.8,23.7C158.4,98.4,151.8,112.9,137.3,116.6z M23.6,72c2.8,6.5,34.8,79.3,34.8,79.3
	c48.8-41.7,119.1-3.1,166.1-43l-34.8-79.3C132.5,67.7,69.3,26,23.6,72z M224.9,144.8c-63.4,37.8-114.7-13.7-180.4,57.5L2.8,106.6
	l13-14L51,173.2l0,0.1c68.9-53.7,103.6-11.3,167.5-43.8C221.3,135.7,223.8,142.3,224.9,144.8z"/>
</svg>
