<?xml version="1.0" encoding="utf-8"?>
<!-- Generator: Adobe Illustrator 18.1.1, SVG Export Plug-In . SVG Version: 6.00 Build 0)  -->
<!DOCTYPE svg PUBLIC "-//W3C//DTD SVG 1.1//EN" "http://www.w3.org/Graphics/SVG/1.1/DTD/svg11.dtd">
<svg version="1.1" id="ARM_Silver_Padlock_heighlight_shape"
	 xmlns="http://www.w3.org/2000/svg" xmlns:xlink="http://www.w3.org/1999/xlink" x="0px" y="0px" viewBox="0 0 227.7 227.3"
	 enable-background="new 0 0 227.7 227.3" xml:space="preserve">
<g>
	<path fill="#38A2DE" d="M167.1,181.4v18.2c-4.7,3.1-10.6,5.8-17.4,7.9l-3.8,1.1c-9.4,2.5-20.3,3.9-32,3.9
		c-11.7,0-22.6-1.4-32.1-3.9l-3.8-1.1c-7.5-2.3-13.9-5.3-18.7-8.9v-17.2c0-18.2,6.2-35.1,40.6-38.5c4.2,2.1,8.9,3.3,13.9,3.3
		c5,0,9.8-1.2,13.9-3.4C162.6,146.2,167.1,163.1,167.1,181.4z M113.8,82c-15.8,0-28.6,12.8-28.6,28.6c0,15.8,12.8,28.6,28.6,28.6
		c15.8,0,28.6-12.8,28.6-28.6C142.4,94.8,129.6,82,113.8,82z M29,75.7C29,60,41.8,47.2,57.5,47.2c15.8,0,28.6,12.8,28.6,28.6
		c0,15.8-12.8,28.6-28.6,28.6C41.8,104.3,29,91.5,29,75.7z M88.7,136.8c-6.9-6.6-11.2-15.9-11.2-26.2c0-0.6,0-1.3,0-1.9
		c-1.9-0.3-4-0.6-6.1-0.8c-4.2,2.1-8.9,3.4-13.9,3.4c-5,0-9.7-1.2-13.9-3.3C9.3,111.4,3,128.3,3,146.5v17.2
		c4.8,3.5,11.2,6.5,18.7,8.9l3.8,1.1c7.8,2.1,16.8,3.4,26.2,3.8C53,155.2,65.2,141.8,88.7,136.8z M93.6,34.9c0-11,9-20,20-20
		c11.1,0,20,9,20,20s-9,20-20,20C102.6,54.9,93.6,45.9,93.6,34.9z M139,61.3c-3.9-1.9-8.9-3.2-15.6-3.9c-2.9,1.5-6.2,2.4-9.8,2.4
		c-3.5,0-6.8-0.8-9.7-2.3c-6.4,0.6-11.4,2-15.3,3.8c2.1,4.4,3.2,9.3,3.2,14.5c0,3.4-0.5,6.7-1.4,9.8c6.1-5.7,14.3-9.3,23.4-9.3
		c9,0,17.3,3.5,23.4,9.2c-0.9-3.1-1.4-6.4-1.4-9.7C135.8,70.6,136.9,65.7,139,61.3z M199.2,57.5c24,2.5,27.1,14.2,27.1,26.9v12.7
		c-3.3,2.2-7.4,4.1-12.2,5.5l-2.6,0.7c-3.2,0.8-6.7,1.5-10.3,2c-3.1-0.9-6.5-1.7-10.2-2.4c8.2-6.3,13.6-16.2,13.6-27.3
		C204.5,69,202.5,62.8,199.2,57.5z M196.3,53.5c7.5-2.9,12.8-10.1,12.8-18.6c0-11-9-20-20-20c-11,0-20,9-20,20
		c0,2.3,0.4,4.5,1.1,6.5C180.6,41.4,190,46.1,196.3,53.5z M23.2,75.7c0,11.1,5.3,21,13.6,27.3c-3.7,0.6-7.1,1.4-10.2,2.4
		c-3.7-0.5-7.1-1.1-10.3-2l-2.6-0.7c-4.8-1.5-9-3.4-12.2-5.5V84.4c0-12.7,3.1-24.5,27.1-26.9C25.1,62.8,23.2,69,23.2,75.7z
		 M57.5,41.4c0.7-2,1.1-4.2,1.1-6.5c0-11-9-20-20-20c-11.1,0-20,9-20,20c0,8.5,5.3,15.7,12.8,18.6C37.7,46.1,47.1,41.4,57.5,41.4z
		 M224.6,146.5v17.2c-4.8,3.5-11.2,6.5-18.7,8.9l-3.8,1.1c-8.2,2.2-17.5,3.5-27.5,3.8c-0.7-16.6-6.5-34.7-35.7-40.8
		c6.9-6.6,11.1-15.9,11.1-26.1c0-0.6,0-1.3,0-1.9c1.9-0.3,4-0.6,6.1-0.8c4.2,2.1,8.9,3.4,13.9,3.4c5,0,9.7-1.2,13.9-3.3
		C218.4,111.4,224.6,128.3,224.6,146.5z M170.1,104.3c15.8,0,28.6-12.8,28.6-28.6c0-15.8-12.8-28.6-28.6-28.6
		c-15.8,0-28.6,12.8-28.6,28.6C141.6,91.5,154.4,104.3,170.1,104.3z"/>
</g>
</svg>
