<?xml version="1.0" encoding="utf-8"?>
<!-- Generator: Adobe Illustrator 18.1.1, SVG Export Plug-In . SVG Version: 6.00 Build 0)  -->
<!DOCTYPE svg PUBLIC "-//W3C//DTD SVG 1.1//EN" "http://www.w3.org/Graphics/SVG/1.1/DTD/svg11.dtd">
<svg version="1.1" xmlns="http://www.w3.org/2000/svg" xmlns:xlink="http://www.w3.org/1999/xlink" x="0px" y="0px"
	 viewBox="0 0 171.9 61.8" enable-background="new 0 0 171.9 61.8" xml:space="preserve">
<g id="shape">
</g>
<g id="Layer_1">
	<g>
		<path fill="#353334" d="M153.3,53.2c-5.5-1.6-3.7-9.3-2.7-11.5c0,0,7,0.9,12.7-1.3c5.7-2.2,8.6-7.8,8.6-11.9
			c0-3.8-1.6-10.2-9.9-10.2c-8.2,0-16.1,10.3-19.1,18.2c-1.3,3.3-8.4,17.6-12,17.6c-3.6,0-0.2-6.3,3.3-12.2
			c2.7-4.5,5.7-9.3,6.3-11.9c1.1-4.9-0.2-11.8-7.1-11.8c-5.1,0-9.9,7.2-10.8,8.3c-0.1,0.1-0.1,0.2-0.1,0.1c0,0,0-0.1,0-0.1
			c0.5-4.5-1.5-8.3-5.9-8.3c-4.2,0-10.2,4.8-11.4,7.7c0,0,0-0.1,0-0.1l-0.1-4.5h-3.6l-9.1,17.8l-2.5,5.3c0,0.2,0.1,0.3,0.1,0.5
			c0.1,0.3,0.1,0.6,0.2,0.9c0.1,0.8,0.2,1.6,0.2,2.4c0,5-2.6,9.4-6.5,12H92c1.9-3.9,3.3-6.9,3.4-7c5.7-11.1,12.6-24.2,17.1-24.4
			c2.2-0.1,1.7,2.1,0.6,4.5l0,0L99.2,60.2h9.4c1.2-2.1,8.8-15.9,9-16.3c3.4-6.1,8.3-15.1,12.3-15.1c6.2,0-9.1,15.7-9.1,24
			c0,5.8,3.1,9,8.4,9c5.9,0,10.1-7.9,11.1-11.1c0.8,6.6,7.1,12.3,14.6,10.8c9.2-1.8,14.2-12.3,14.5-15.8h-3.2
			C164.5,50.4,159.5,55,153.3,53.2z M161.2,26c2.9-1.5,5.6-0.3,5,3.4c-0.7,4.7-8.5,7-13.1,6.1C155.2,31.2,158.4,27.6,161.2,26z"/>
		<g>
			<path fill="#353334" d="M61.6,48.2c0-7.6,5.9-13.9,13.5-14.3c0.2,0,0.3,0,0.5,0c0-0.2,0-0.3,0.1-0.5c0,0,0,0,0.1,0
				c0.2-1.6,0.3-3.2,0.3-4.9c0-9.2-2.6-16.4-7.8-21.2C63,2.5,55.5,0,45.9,0h-0.1h0H25.1v59.7h19.3c7.6,0,13.9-1.6,18.9-4.7
				c-0.1-0.2-0.2-0.3-0.3-0.5C62.2,52.6,61.6,50.5,61.6,48.2z M54.4,40.8c-2.3,2.7-6,4.1-10.8,4.1h-2.3V14h3.3c4.4,0,7.7,1.3,10,3.8
				c2.2,2.5,3.3,6.2,3.3,11.2C57.9,34.2,56.7,38.2,54.4,40.8z"/>
			<polygon fill="#353334" points="0,59.7 16.2,59.7 16.2,59.7 16.2,0 0,0 			"/>
		</g>
		<circle fill="#2FC877" cx="76" cy="48.2" r="8.9"/>
	</g>
</g>
</svg>
