<?xml version="1.0" encoding="utf-8"?>
<!-- Generator: Adobe Illustrator 18.1.1, SVG Export Plug-In . SVG Version: 6.00 Build 0)  -->
<!DOCTYPE svg PUBLIC "-//W3C//DTD SVG 1.1//EN" "http://www.w3.org/Graphics/SVG/1.1/DTD/svg11.dtd">
<svg version="1.1" id="ARM_Silver_Padlock_heighlight_shape"
	 xmlns="http://www.w3.org/2000/svg" xmlns:xlink="http://www.w3.org/1999/xlink" x="0px" y="0px" viewBox="0 0 400 400"
	 enable-background="new 0 0 400 400" xml:space="preserve">
<g>
	<path fill="#38A2DE" d="M337.6,238.3L228.8,347.2l0,0c-7.5,7.5-19.7,7.5-27.3,0L57.7,203.3c-1-1-1.8-1.9-2.4-3l-2.9,17.5
		c-0.8,4.7,0.3,9.5,2.7,13.5c0.8,1.1,1.6,2.2,2.6,3.4l143.8,143.8c7.5,7.5,19.7,7.5,27.3,0l0,0l109.5-109.5l1.3-1.3
		c7.5-7.5,7.5-19.7,0-27.3L337.6,238.3z"/>
	<path fill="#38A2DE" d="M55.3,171.2c0.6,1.1,1.4,2.1,2.4,3l143.8,143.8c7.5,7.5,19.7,7.5,27.3,0l0,0l108.7-108.9l0.6-0.6l1.3-1.3
		c7.5-7.5,7.5-19.7,0-27.3L195.6,36.2c-4.3-4.3-10.7-6.4-16.8-5.3L83.9,46.8c-4,0.6-7.5,2.6-10.4,5.5c-2.9,2.9-4.7,6.4-5.3,10.4
		l-15.9,94.9c-0.8,4.7,0.3,9.5,2.7,13.5C55.2,171.1,55.3,171.1,55.3,171.2z M114.3,92.8c7.9-7.9,20.5-7.9,28.4,0
		c7.9,7.9,7.9,20.5,0,28.4s-20.5,7.9-28.4,0S106.5,100.7,114.3,92.8z"/>
</g>
</svg>
