<?xml version="1.0" encoding="utf-8"?>
<!-- Generator: Adobe Illustrator 18.1.1, SVG Export Plug-In . SVG Version: 6.00 Build 0)  -->
<!DOCTYPE svg PUBLIC "-//W3C//DTD SVG 1.1//EN" "http://www.w3.org/Graphics/SVG/1.1/DTD/svg11.dtd">
<svg version="1.1" id="ARM_Silver_Padlock_heighlight_shape"
	 xmlns="http://www.w3.org/2000/svg" xmlns:xlink="http://www.w3.org/1999/xlink" x="0px" y="0px" viewBox="0 0 227.7 227.3"
	 enable-background="new 0 0 227.7 227.3" xml:space="preserve">
<g>
	<path fill="none" d="M100.3,95v8h6.1v-8c0-4.2,3.3-7.7,7.4-7.7c4.1,0,7.4,3.5,7.4,7.7v8h6.1v-8c0-7.7-6.1-14-13.5-14
		C106.4,80.9,100.3,87.2,100.3,95z"/>
	<path fill="none" d="M95.7,133.2h36.2v-26.5H95.7V133.2z M113.8,114.4c1.8,0,3.3,1.5,3.3,3.4c0,1-0.4,1.9-1.1,2.5
		c-0.5,0.5-0.8,1.2-0.8,2v2.9h-2.8v-2.9c0-0.8-0.3-1.5-0.8-2c-0.6-0.6-1.1-1.5-1.1-2.5C110.5,116,112,114.4,113.8,114.4z"/>
	<path fill="none" d="M49.1,53.4v84c0,13.5,4.1,20.4,10.3,26.7c10.5,10.7,29.8,21.3,54.4,36.1c24.6-14.8,43.9-25.4,54.4-36.1
		c6.2-6.3,10.3-13.3,10.3-26.7v-84c-22.7-2.1-42.1-8.3-64.7-24.3C91.2,45.1,71.8,51.3,49.1,53.4z M161.9,137.4
		c0,9-2.2,11.9-5.6,15.4c-7.7,7.9-23.1,16.8-42.4,28.3c-19.3-11.5-34.7-20.5-42.4-28.3c-3.4-3.5-5.6-6.4-5.6-15.4V67.6
		c16.2-3,31.6-8.6,48-18.8c16.5,10.2,31.9,15.8,48,18.8V137.4z"/>
	<path fill="#38A2DE" d="M65.8,67.6v69.8c0,9,2.2,11.9,5.6,15.4c7.7,7.9,23.1,16.8,42.4,28.3c19.3-11.5,34.7-20.5,42.4-28.3
		c3.4-3.5,5.6-6.4,5.6-15.4V67.6c-16.2-3-31.6-8.6-48-18.8C97.3,59,82,64.7,65.8,67.6z M131.9,133.2H95.7v-26.5h36.2V133.2z
		 M127.4,95v8h-6.1v-8c0-4.2-3.3-7.7-7.4-7.7c-4.1,0-7.4,3.5-7.4,7.7v8h-6.1v-8c0-7.7,6.1-14,13.5-14
		C121.3,80.9,127.4,87.2,127.4,95z"/>
	<path fill="#38A2DE" d="M112.4,122.4v2.9h2.8v-2.9c0-0.8,0.3-1.5,0.8-2c0.6-0.6,1.1-1.5,1.1-2.5c0-1.9-1.5-3.4-3.3-3.4
		s-3.3,1.5-3.3,3.4c0,1,0.4,1.9,1.1,2.5C112.1,120.9,112.4,121.6,112.4,122.4z"/>
	<path fill="#38A2DE" d="M113.8,1.4C81.7,28.2,60.4,32.5,26.9,32.5c0,0,0,63.7,0,104.9c0,43.1,31.7,54.3,86.9,88.6
		c55.3-34.3,86.9-45.5,86.9-88.6c0-41.2,0-104.9,0-104.9C167.3,32.5,146,28.2,113.8,1.4z M178.5,137.4c0,13.5-4.1,20.4-10.3,26.7
		c-10.5,10.7-29.8,21.3-54.4,36.1c-24.6-14.8-43.9-25.4-54.4-36.1c-6.2-6.3-10.3-13.3-10.3-26.7v-84c22.7-2.1,42.1-8.3,64.7-24.3
		c22.6,16,42,22.2,64.7,24.3V137.4z"/>
</g>
</svg>
